<svg width="139" height="139" viewBox="0 0 139 139" fill="none" xmlns="http://www.w3.org/2000/svg">
<circle cx="69.5" cy="69.5" r="69.5" fill="#f6e7ff"/>
<path d="M71.1745 20.1509C73.5343 19.5706 76.3465 20.6052 82.3903 24.2768C83.6242 25.026 85.8041 26.3514 87.235 27.2221C88.6655 28.0921 89.8671 28.8036 89.9059 28.8042C89.9434 28.8042 91.1425 29.5776 92.57 30.5229C99.7263 35.2606 103.474 40.2675 104.937 47.0454C106.882 56.0532 101.773 70.8315 98.0661 66.9214C97.3596 66.1762 97.2143 65.3279 97.6013 64.1987C98.2533 62.2928 98.1366 56.0536 97.3972 53.3081C95.3608 45.75 87.62 40.1861 77.4655 38.9829L76.3434 38.8501V64.7612C76.3434 94.6053 77.4314 92.8891 75.3649 96.9995C74.7601 98.2025 74.0312 99.3357 73.2018 100.395L68.3308 108.706C68.0245 109.228 67.6031 109.674 67.0993 110.01L56.2888 117.222C54.7309 118.261 52.6605 118.08 51.3063 116.787L33.237 99.5288C32.0978 98.4407 31.704 96.7852 32.2302 95.3003L36.9743 81.9136C37.3734 80.7874 38.2548 79.898 39.3776 79.4897L60.8444 71.685C62.0308 71.2538 63.3517 71.4082 64.4069 72.1011L66.5895 73.5346L66.6374 50.0766L66.6891 24.2436L67.1032 23.354C67.8586 21.7282 69.2673 20.6199 71.1745 20.1509Z" fill="#8E3BFF"/>
<path d="M54 111L55 95.5M55 95.5L63 86.5M55 95.5L46 91" stroke="#7400EA" stroke-miterlimit="16" stroke-linecap="round"/>
</svg>
